# xmcd
#
# Track frame offsets: 
#        150
#        32988
#        51193
#        66425
#        89055
#        115065
#        140246
#        166505
#        181820
#        208617
#        229481
#        257321
#        285222
#        305660
#        325430
#
# Disc length: 4671 seconds
#
# Revision: 0
# Processed by: cddbd v1.5.2PL0 Copyright (c) Steve Scherf et al.
# Submitted via: ExactAudioCopy v1.0b4
#
DISCID=dc123d0f
DTITLE=Barry Levenson - The Late Show
DYEAR=2011
DGENRE=Blues
TTITLE0=Riley`s Shuffle - Blue Tears
TTITLE1=Whole Lotta Blues
TTITLE2=One For Muddy
TTITLE3=Meters Runnin'
TTITLE4=The Late Show
TTITLE5=Turn Up The A.C.
TTITLE6=Slippin' Down Blues
TTITLE7=Charlie's Ride
TTITLE8=Steel Life
TTITLE9=Wrong Side Of The Blues
TTITLE10=West Side rain
TTITLE11=Down At The Hill
TTITLE12=Rush Hour
TTITLE13=Drinkin' Stops Me Thinkin'
TTITLE14=Gree Is Blue
EXTD=
EXTT0=
EXTT1=
EXTT2=
EXTT3=
EXTT4=
EXTT5=
EXTT6=
EXTT7=
EXTT8=
EXTT9=
EXTT10=
EXTT11=
EXTT12=
EXTT13=
EXTT14=
PLAYORDER=
